<svg width="20" height="21" viewBox="0 0 20 21" fill="none" xmlns="http://www.w3.org/2000/svg">
<g clip-path="url(#clip0_122_2)">
<path d="M10.4 9.6V12.3333H16.9334C16.7334 13.8667 16.2225 14.9892 15.4442 15.7775C14.4884 16.7333 13 17.7775 10.4 17.7775C6.37753 17.7775 3.23336 14.5333 3.23336 10.5108C3.23336 6.48833 6.37753 3.24417 10.4 3.24417C12.5667 3.24417 14.1559 4.1 15.3225 5.2L17.245 3.2775C15.6225 1.7 13.4442 0.5 10.4 0.5C4.88919 0.5 0.255859 4.98917 0.255859 10.5C0.255859 16.0108 4.88919 20.5 10.4 20.5C13.3775 20.5 15.6225 19.5225 17.3775 17.7C19.1775 15.9 19.7442 13.3558 19.7442 11.3108C19.7442 10.6775 19.7 10.0883 19.6 9.6H10.4Z" fill="white"/>
</g>
<defs>
<clipPath id="clip0_122_2">
<rect width="20" height="20" fill="white" transform="translate(0 0.5)"/>
</clipPath>
</defs>
</svg>
