<svg width="20" height="20" viewBox="0 0 20 20" fill="none" xmlns="http://www.w3.org/2000/svg">
<path d="M14.9987 1.6665H4.9987C4.07822 1.6665 3.33203 2.4127 3.33203 3.33317V16.6665C3.33203 17.587 4.07822 18.3332 4.9987 18.3332H14.9987C15.9192 18.3332 16.6654 17.587 16.6654 16.6665V3.33317C16.6654 2.4127 15.9192 1.6665 14.9987 1.6665Z" stroke="#ABA9B2" stroke-width="2" stroke-linecap="round" stroke-linejoin="round"/>
<path d="M7.5 18.3333V15H12.5V18.3333" stroke="#ABA9B2" stroke-width="2" stroke-linecap="round" stroke-linejoin="round"/>
<path d="M6.66797 5H6.6763" stroke="#ABA9B2" stroke-width="2" stroke-linecap="round" stroke-linejoin="round"/>
<path d="M13.332 5H13.3404" stroke="#ABA9B2" stroke-width="2" stroke-linecap="round" stroke-linejoin="round"/>
<path d="M10 5H10.0083" stroke="#ABA9B2" stroke-width="2" stroke-linecap="round" stroke-linejoin="round"/>
<path d="M10 8.3335H10.0083" stroke="#ABA9B2" stroke-width="2" stroke-linecap="round" stroke-linejoin="round"/>
<path d="M10 11.6665H10.0083" stroke="#ABA9B2" stroke-width="2" stroke-linecap="round" stroke-linejoin="round"/>
<path d="M13.332 8.3335H13.3404" stroke="#ABA9B2" stroke-width="2" stroke-linecap="round" stroke-linejoin="round"/>
<path d="M13.332 11.6665H13.3404" stroke="#ABA9B2" stroke-width="2" stroke-linecap="round" stroke-linejoin="round"/>
<path d="M6.66797 8.3335H6.6763" stroke="#ABA9B2" stroke-width="2" stroke-linecap="round" stroke-linejoin="round"/>
<path d="M6.66797 11.6665H6.6763" stroke="#ABA9B2" stroke-width="2" stroke-linecap="round" stroke-linejoin="round"/>
</svg>
