<svg width="20" height="20" viewBox="0 0 20 20" fill="none" xmlns="http://www.w3.org/2000/svg">
<path d="M14.9987 1.66699H4.9987C4.07822 1.66699 3.33203 2.41318 3.33203 3.33366V16.667C3.33203 17.5875 4.07822 18.3337 4.9987 18.3337H14.9987C15.9192 18.3337 16.6654 17.5875 16.6654 16.667V3.33366C16.6654 2.41318 15.9192 1.66699 14.9987 1.66699Z" stroke="#54525B" stroke-width="2" stroke-linecap="round" stroke-linejoin="round"/>
<path d="M7.5 18.3333V15H12.5V18.3333" stroke="#54525B" stroke-width="2" stroke-linecap="round" stroke-linejoin="round"/>
<path d="M6.66797 5H6.6763" stroke="#54525B" stroke-width="2" stroke-linecap="round" stroke-linejoin="round"/>
<path d="M13.332 5H13.3404" stroke="#54525B" stroke-width="2" stroke-linecap="round" stroke-linejoin="round"/>
<path d="M10 5H10.0083" stroke="#54525B" stroke-width="2" stroke-linecap="round" stroke-linejoin="round"/>
<path d="M10 8.33301H10.0083" stroke="#54525B" stroke-width="2" stroke-linecap="round" stroke-linejoin="round"/>
<path d="M10 11.667H10.0083" stroke="#54525B" stroke-width="2" stroke-linecap="round" stroke-linejoin="round"/>
<path d="M13.332 8.33301H13.3404" stroke="#54525B" stroke-width="2" stroke-linecap="round" stroke-linejoin="round"/>
<path d="M13.332 11.667H13.3404" stroke="#54525B" stroke-width="2" stroke-linecap="round" stroke-linejoin="round"/>
<path d="M6.66797 8.33301H6.6763" stroke="#54525B" stroke-width="2" stroke-linecap="round" stroke-linejoin="round"/>
<path d="M6.66797 11.667H6.6763" stroke="#54525B" stroke-width="2" stroke-linecap="round" stroke-linejoin="round"/>
</svg>
