<svg width="20" height="20" viewBox="0 0 20 20" fill="none" xmlns="http://www.w3.org/2000/svg">
<g clip-path="url(#clip0_182_122)">
<path d="M9.02225 13.6494C8.14904 14.0907 7.16678 14.2698 6.19403 14.1651C5.22128 14.0604 4.29961 13.6764 3.54028 13.0595C2.78095 12.4425 2.21641 11.619 1.91481 10.6883C1.6132 9.75757 1.58742 8.75945 1.84058 7.8144L6.35058 9.02274C5.90931 8.14953 5.73021 7.16727 5.83488 6.19452C5.93956 5.22177 6.32355 4.3001 6.94049 3.54077C7.55744 2.78144 8.38097 2.2169 9.31169 1.9153C10.2424 1.61369 11.2405 1.58791 12.1856 1.84107L10.9772 6.35107C11.8505 5.9098 12.8327 5.7307 13.8055 5.83537C14.7782 5.94005 15.6999 6.32404 16.4592 6.94098C17.2185 7.55793 17.7831 8.38146 18.0847 9.31218C18.3863 10.2429 18.4121 11.241 18.1589 12.1861L13.6489 10.9777C14.0902 11.8509 14.2693 12.8332 14.1646 13.806C14.0599 14.7787 13.6759 15.7004 13.059 16.4597C12.4421 17.219 11.6185 17.7836 10.6878 18.0852C9.75708 18.3868 8.75896 18.4126 7.81391 18.1594L9.02225 13.6494Z" stroke="#2B2A2F" stroke-width="2" stroke-linecap="round" stroke-linejoin="round"/>
<path d="M10 10V10.0083" stroke="#2B2A2F" stroke-width="2" stroke-linecap="round" stroke-linejoin="round"/>
</g>
<defs>
<clipPath id="clip0_182_122">
<rect width="20" height="20" fill="white"/>
</clipPath>
</defs>
</svg>
