<svg width="20" height="20" viewBox="0 0 20 20" fill="none" xmlns="http://www.w3.org/2000/svg">
<g clip-path="url(#clip0_210_566)">
<path d="M9.02225 13.6489C8.14904 14.0902 7.16678 14.2693 6.19403 14.1646C5.22128 14.0599 4.29961 13.6759 3.54028 13.059C2.78095 12.4421 2.21641 11.6185 1.91481 10.6878C1.6132 9.75708 1.58742 8.75896 1.84058 7.81391L6.35058 9.02225C5.90931 8.14904 5.73021 7.16678 5.83488 6.19403C5.93956 5.22128 6.32355 4.29961 6.94049 3.54028C7.55744 2.78095 8.38097 2.21641 9.31169 1.91481C10.2424 1.6132 11.2405 1.58742 12.1856 1.84058L10.9772 6.35058C11.8505 5.90931 12.8327 5.73021 13.8055 5.83488C14.7782 5.93956 15.6999 6.32355 16.4592 6.94049C17.2185 7.55744 17.7831 8.38097 18.0847 9.31169C18.3863 10.2424 18.4121 11.2405 18.1589 12.1856L13.6489 10.9772C14.0902 11.8505 14.2693 12.8327 14.1646 13.8055C14.0599 14.7782 13.6759 15.6999 13.059 16.4592C12.4421 17.2185 11.6185 17.7831 10.6878 18.0847C9.75708 18.3863 8.75896 18.4121 7.81391 18.1589L9.02225 13.6489Z" stroke="white" stroke-width="2" stroke-linecap="round" stroke-linejoin="round"/>
<path d="M10 10V10.0083" stroke="white" stroke-width="2" stroke-linecap="round" stroke-linejoin="round"/>
</g>
<defs>
<clipPath id="clip0_210_566">
<rect width="20" height="20" fill="white"/>
</clipPath>
</defs>
</svg>
