<svg width="21" height="20" viewBox="0 0 21 20" fill="none" xmlns="http://www.w3.org/2000/svg">
<path d="M17.166 5.83301H9.66602" stroke="#2B2A2F" stroke-width="2" stroke-linecap="round" stroke-linejoin="round"/>
<path d="M12.166 14.167H4.66602" stroke="#2B2A2F" stroke-width="2" stroke-linecap="round" stroke-linejoin="round"/>
<path d="M14.666 16.667C16.0467 16.667 17.166 15.5477 17.166 14.167C17.166 12.7863 16.0467 11.667 14.666 11.667C13.2853 11.667 12.166 12.7863 12.166 14.167C12.166 15.5477 13.2853 16.667 14.666 16.667Z" stroke="#2B2A2F" stroke-width="2" stroke-linecap="round" stroke-linejoin="round"/>
<path d="M6.33398 8.33301C7.7147 8.33301 8.83398 7.21372 8.83398 5.83301C8.83398 4.4523 7.7147 3.33301 6.33398 3.33301C4.95327 3.33301 3.83398 4.4523 3.83398 5.83301C3.83398 7.21372 4.95327 8.33301 6.33398 8.33301Z" stroke="#2B2A2F" stroke-width="2" stroke-linecap="round" stroke-linejoin="round"/>
</svg>
