<svg width="94" height="95" viewBox="0 0 94 95" fill="none" xmlns="http://www.w3.org/2000/svg">
<path d="M85.108 70.5115L53.7747 15.6781C53.0915 14.4726 52.1007 13.4699 50.9035 12.7722C49.7062 12.0746 48.3454 11.707 46.9597 11.707C45.574 11.707 44.2132 12.0746 43.0159 12.7722C41.8187 13.4699 40.8279 14.4726 40.1447 15.6781L8.81137 70.5115C8.12079 71.7074 7.75868 73.0647 7.76174 74.4458C7.7648 75.8268 8.13292 77.1825 8.82878 78.3754C9.52465 79.5684 10.5235 80.5561 11.7242 81.2385C12.9248 81.921 14.2845 82.2739 15.6655 82.2615H78.3322C79.7066 82.26 81.0564 81.8971 82.246 81.209C83.4357 80.5209 84.4235 79.5319 85.11 78.3413C85.7966 77.1507 86.1579 75.8005 86.1575 74.4261C86.1571 73.0518 85.7952 71.7017 85.108 70.5115Z" stroke="#EE4266" stroke-width="10" stroke-linecap="round" stroke-linejoin="round"/>
<path d="M47 35.2617V50.9284" stroke="#EE4266" stroke-width="10" stroke-linecap="round" stroke-linejoin="round"/>
<path d="M47 66.5957H47.0392" stroke="#EE4266" stroke-width="10" stroke-linecap="round" stroke-linejoin="round"/>
</svg>
