<svg width="21" height="20" viewBox="0 0 21 20" fill="none" xmlns="http://www.w3.org/2000/svg">
<path d="M5.84115 2.5H3.34115C2.88091 2.5 2.50781 2.8731 2.50781 3.33333V5.83333C2.50781 6.29357 2.88091 6.66667 3.34115 6.66667H5.84115C6.30138 6.66667 6.67448 6.29357 6.67448 5.83333V3.33333C6.67448 2.8731 6.30138 2.5 5.84115 2.5Z" stroke="#2B2A2F" stroke-width="2" stroke-linecap="round" stroke-linejoin="round"/>
<path d="M16.6751 2.5H14.1751C13.7149 2.5 13.3418 2.8731 13.3418 3.33333V5.83333C13.3418 6.29357 13.7149 6.66667 14.1751 6.66667H16.6751C17.1354 6.66667 17.5085 6.29357 17.5085 5.83333V3.33333C17.5085 2.8731 17.1354 2.5 16.6751 2.5Z" stroke="#2B2A2F" stroke-width="2" stroke-linecap="round" stroke-linejoin="round"/>
<path d="M5.84115 13.3335H3.34115C2.88091 13.3335 2.50781 13.7066 2.50781 14.1668V16.6668C2.50781 17.1271 2.88091 17.5002 3.34115 17.5002H5.84115C6.30138 17.5002 6.67448 17.1271 6.67448 16.6668V14.1668C6.67448 13.7066 6.30138 13.3335 5.84115 13.3335Z" stroke="#2B2A2F" stroke-width="2" stroke-linecap="round" stroke-linejoin="round"/>
<path d="M17.5085 13.3335H15.0085C14.5664 13.3335 14.1425 13.5091 13.83 13.8217C13.5174 14.1342 13.3418 14.5581 13.3418 15.0002V17.5002" stroke="#2B2A2F" stroke-width="2" stroke-linecap="round" stroke-linejoin="round"/>
<path d="M17.5078 17.5V17.5083" stroke="#2B2A2F" stroke-width="2" stroke-linecap="round" stroke-linejoin="round"/>
<path d="M10.0085 5.8335V8.3335C10.0085 8.77552 9.83287 9.19945 9.52031 9.51201C9.20775 9.82457 8.78382 10.0002 8.3418 10.0002H5.8418" stroke="#2B2A2F" stroke-width="2" stroke-linecap="round" stroke-linejoin="round"/>
<path d="M2.50781 10H2.51615" stroke="#2B2A2F" stroke-width="2" stroke-linecap="round" stroke-linejoin="round"/>
<path d="M10.0078 2.5H10.0161" stroke="#2B2A2F" stroke-width="2" stroke-linecap="round" stroke-linejoin="round"/>
<path d="M10.0078 13.3335V13.3418" stroke="#2B2A2F" stroke-width="2" stroke-linecap="round" stroke-linejoin="round"/>
<path d="M13.3418 10H14.1751" stroke="#2B2A2F" stroke-width="2" stroke-linecap="round" stroke-linejoin="round"/>
<path d="M17.5078 10V10.0083" stroke="#2B2A2F" stroke-width="2" stroke-linecap="round" stroke-linejoin="round"/>
<path d="M10.0078 17.4998V16.6665" stroke="#2B2A2F" stroke-width="2" stroke-linecap="round" stroke-linejoin="round"/>
</svg>
